HIERARCHY
ROOT Hips
{
 OFFSET 0.000000 0.000000 0.000000
 CHANNELS 6 Xposition Yposition Zposition Yrotation Xrotation Zrotation
 JOINT Chest
 {
  OFFSET 0.000000 9.585900 0.002600
  CHANNELS 3 Yrotation Xrotation Zrotation
  JOINT Chest2
  {
   OFFSET 0.000000 9.601200 -0.005300
   CHANNELS 3 Yrotation Xrotation Zrotation
   JOINT Chest3
   {
    OFFSET 0.000000 9.561800 0.000000
    CHANNELS 3 Yrotation Xrotation Zrotation
    JOINT Chest4
    {
     OFFSET 0.000000 9.552100 0.000000
     CHANNELS 3 Yrotation Xrotation Zrotation
     JOINT Neck
     {
      OFFSET 0.000000 14.453000 0.000000
      CHANNELS 3 Yrotation Xrotation Zrotation
      JOINT Head
      {
       OFFSET 0.000000 8.936500 -0.011300
       CHANNELS 3 Yrotation Xrotation Zrotation
       End Site
       {
        OFFSET 0.000000 17.073600 -0.006000
       }
      }
     }
     JOINT RightCollar
     {
      OFFSET -2.921100 9.558500 0.000000
      CHANNELS 3 Yrotation Xrotation Zrotation
      JOINT RightShoulder
      {
       OFFSET -13.519700 0.000000 0.000000
       CHANNELS 3 Yrotation Xrotation Zrotation
       JOINT RightElbow
       {
        OFFSET 0.000000 -29.696600 0.000000
        CHANNELS 3 Yrotation Xrotation Zrotation
        JOINT RightWrist
        {
         OFFSET 0.000000 -24.004700 0.000000
         CHANNELS 3 Yrotation Xrotation Zrotation
         End Site
         {
          OFFSET 0.000000 -17.728500 0.000000
         }
        }
       }
      }
     }
     JOINT LeftCollar
     {
      OFFSET 2.921100 9.558500 0.000000
      CHANNELS 3 Yrotation Xrotation Zrotation
      JOINT LeftShoulder
      {
       OFFSET 13.519700 0.000000 0.000000
       CHANNELS 3 Yrotation Xrotation Zrotation
       JOINT LeftElbow
       {
        OFFSET 0.000000 -29.696600 0.000000
        CHANNELS 3 Yrotation Xrotation Zrotation
        JOINT LeftWrist
        {
         OFFSET 0.000000 -24.004700 0.000000
         CHANNELS 3 Yrotation Xrotation Zrotation
         End Site
         {
          OFFSET 0.000000 -17.728500 0.000000
         }
        }
       }
      }
     }
    }
   }
  }
 }
 JOINT RightHip
 {
  OFFSET -7.771700 -0.012900 -0.001300
  CHANNELS 3 Yrotation Xrotation Zrotation
  JOINT RightKnee
  {
   OFFSET 0.000000 -40.869800 0.001200
   CHANNELS 3 Yrotation Xrotation Zrotation
   JOINT RightAnkle
   {
    OFFSET 0.000000 -39.717900 0.002100
    CHANNELS 3 Yrotation Xrotation Zrotation
    JOINT RightToe
    {
     OFFSET 0.000000 -4.965400 11.033500
     CHANNELS 3 Yrotation Xrotation Zrotation
     End Site
     {
      OFFSET 0.000000 -1.423100 5.872300
     }
    }
   }
  }
 }
 JOINT LeftHip
 {
  OFFSET 7.771700 -0.012900 -0.001300
  CHANNELS 3 Yrotation Xrotation Zrotation
  JOINT LeftKnee
  {
   OFFSET 0.000000 -40.869800 0.001200
   CHANNELS 3 Yrotation Xrotation Zrotation
   JOINT LeftAnkle
   {
    OFFSET 0.000000 -39.717900 0.002100
    CHANNELS 3 Yrotation Xrotation Zrotation
    JOINT LeftToe
    {
     OFFSET 0.000000 -4.965400 11.033500
     CHANNELS 3 Yrotation Xrotation Zrotation
     End Site
     {
      OFFSET 0.000000 -1.423100 5.872300
     }
    }
   }
  }
 }
}
MOTION
Frames: 9
Frame Time: 0.008333
0.000000 85.388000 0.000000 0.000000 -5.767877 0.000000 0.000000 11.653817 0.000000 0.000000 -5.885947 0.000000 0.000000 -0.000000 0.000000 0.000000 -0.000000 0.000000 0.000000 12.528835 0.000000 0.000000 0.711642 0.000000 0.000000 -0.000000 0.000000 0.000000 0.000000 -90.000000 0.000000 -2.309062 0.000000 0.000000 2.309062 0.000000 0.000000 -0.000000 0.000000 0.000000 -0.000000 90.000000 0.000000 -2.309062 0.000000 0.000000 2.309062 0.000000 0.000000 8.520406 0.000000 0.000000 1.905762 0.000000 -0.000000 -4.658285 0.000000 0.000000 -0.000000 0.000000 0.000000 8.520406 0.000000 0.000000 1.905762 0.000000 -0.000000 -4.658285 0.000000 0.000000 -0.000000 0.000000
9.287489 52.136895 39.966033 169.910088 -39.782305 -0.807917 4.663883 24.407015 2.998904 0.582030 3.832807 0.553569 1.007006 6.210828 0.893001 3.750400 20.233760 3.462228 2.897195 16.138170 -0.815538 5.672783 -5.732777 -2.542408 -5.623127 -0.695518 -3.992024 -1.148008 -9.773965 -0.177284 160.360990 -43.548964 -148.571587 4.163543 -20.211843 -26.882086 -5.435666 -0.063923 1.106794 7.390808 -14.513126 5.022941 179.832904 -45.923679 163.076379 -14.864286 -23.021555 31.489796 -4.774500 -41.719698 5.729383 131.848927 85.498529 135.630581 -4.318496 -9.986256 -3.137657 0.636561 -0.748485 0.250581 2.887020 -37.968280 5.843839 70.720537 83.298435 60.320511 -6.042993 -12.093183 10.197476 0.191690 1.364677 0.133140
9.290479 52.135370 39.964517 169.898037 -39.777840 -0.826998 4.696045 24.411317 3.028316 0.598421 3.857672 0.552575 0.990992 6.185816 0.897969 3.805597 20.254575 3.452186 2.854819 16.155200 -0.789915 5.608934 -5.565578 -2.508662 -5.671728 -0.557823 -3.981720 -1.147606 -9.790093 -0.185258 159.016403 -42.365496 -147.978497 4.422172 -20.703234 -27.428632 -5.436476 0.017159 1.120598 7.554467 -14.683452 5.165244 179.761822 -45.271583 163.226707 -14.941580 -23.090583 31.407909 -4.796563 -41.718601 5.750719 131.700754 85.489682 135.506006 -4.319361 -9.990410 -3.158603 0.646204 -0.749915 0.250059 2.962127 -37.977649 5.863489 70.670414 83.317877 60.308330 -6.096900 -12.085368 10.216442 0.223408 1.367492 0.128807
9.290639 52.133559 39.961874 169.891625 -39.773207 -0.832295 4.715280 24.413850 3.037443 0.613721 3.870206 0.547741 1.001798 6.191777 0.898171 3.844933 20.235408 3.443239 2.825591 16.255828 -0.773353 5.534724 -5.456513 -2.452219 -5.729929 -0.412405 -3.967679 -1.217602 -9.770447 -0.174374 157.820819 -41.134999 -147.495854 4.716625 -21.182811 -27.908553 -5.428277 0.099002 1.152590 7.768787 -14.854668 5.279005 179.690787 -44.541919 163.366978 -15.056135 -23.267140 31.409805 -4.810831 -41.718926 5.743361 131.511921 85.471658 135.334158 -4.298493 -9.998721 -3.168909 0.633240 -0.746666 0.234397 2.997202 -37.981200 5.873449 70.600523 83.332004 60.255035 -6.140963 -12.073702 10.210847 0.269794 1.363510 0.145838
9.291893 52.132083 39.958039 169.872936 -39.774464 -0.833668 4.761690 24.415542 3.049033 0.620839 3.870814 0.546584 1.033633 6.192125 0.885293 3.867889 20.228325 3.456365 2.800315 16.355696 -0.757560 5.463506 -5.336798 -2.389891 -5.796805 -0.272977 -3.952450 -1.352203 -9.720390 -0.155928 156.831426 -39.897076 -147.167798 5.018898 -21.650197 -28.308272 -5.403748 0.168305 1.193508 8.022700 -15.039264 5.366091 179.615598 -43.759278 163.500298 -15.202827 -23.546436 31.502055 -4.819998 -41.715030 5.744080 131.369881 85.454504 135.206053 -4.275522 -10.000921 -3.176782 0.616747 -0.751795 0.225768 3.026943 -37.976676 5.891715 70.666946 83.328222 60.310365 -6.125130 -12.066255 10.206615 0.232830 1.342386 0.167811
9.292514 52.128610 39.955517 169.850814 -39.759483 -0.827127 4.807885 24.398862 3.048828 0.628640 3.869899 0.545630 1.053952 6.204055 0.885034 3.897330 20.223879 3.466120 2.760192 16.382523 -0.728514 5.422293 -5.146624 -2.346789 -5.871925 -0.152214 -3.941650 -1.546704 -9.654896 -0.136163 156.075063 -38.696753 -147.007912 5.302155 -22.111203 -28.627783 -5.360038 0.208211 1.233892 8.300876 -15.241952 5.431722 179.531563 -42.953185 163.640427 -15.376323 -23.917695 31.677330 -4.845680 -41.726834 5.727451 131.031015 85.420749 134.891303 -4.245100 -10.004099 -3.217270 0.602626 -0.754299 0.222008 3.046897 -37.987616 5.903764 70.697474 83.325122 60.324950 -6.112799 -12.049706 10.221589 0.234348 1.322090 0.158227
9.296219 52.123186 39.955140 169.822645 -39.726947 -0.831529 4.863321 24.374313 3.067446 0.665090 3.898724 0.539395 1.047219 6.193298 0.895542 3.925093 20.219548 3.476401 2.746570 16.478403 -0.715138 5.369849 -5.036195 -2.296350 -5.959539 -0.053787 -3.936529 -1.787472 -9.588368 -0.116796 155.558639 -37.578156 -147.003922 5.557153 -22.561732 -28.887685 -5.300592 0.212689 1.273522 8.583099 -15.457130 5.480719 179.435861 -42.146943 163.797384 -15.571927 -24.359910 31.925608 -4.865655 -41.754858 5.737626 130.953476 85.416597 134.848400 -4.221249 -10.015883 -3.269856 0.601688 -0.749427 0.245086 3.081010 -38.017504 5.942307 70.739568 83.331500 60.339689 -6.104462 -12.035691 10.276988 0.214623 1.304686 0.121429
9.302036 52.119395 39.952670 169.820191 -39.707425 -0.855067 4.922610 24.402132 3.105324 0.654591 3.882942 0.546174 1.057292 6.197971 0.896906 3.957401 20.222094 3.483140 2.742737 16.575970 -0.699948 5.327597 -4.933837 -2.252423 -6.037657 -0.036735 -3.926254 -2.069788 -9.467681 -0.112120 155.275005 -36.573326 -147.140538 5.776828 -22.988790 -29.115629 -5.225845 0.186100 1.313113 8.852141 -15.675267 5.514457 179.323691 -41.358111 163.975736 -15.788010 -24.848496 32.227380 -4.911248 -41.766739 5.772138 130.881720 85.409052 134.780255 -4.196561 -10.021043 -3.276097 0.579715 -0.751025 0.235999 3.102298 -38.033805 5.989738 70.639618 83.357179 60.234842 -6.140962 -12.012357 10.290232 0.247125 1.286448 0.133657
9.308695 52.115980 39.949960 169.816016 -39.685789 -0.873506 4.966105 24.424247 3.144237 0.653923 3.879365 0.547354 1.066043 6.204813 0.898829 3.984928 20.228082 3.490753 2.737928 16.645946 -0.682827 5.310081 -4.805169 -2.215635 -6.148493 0.058173 -3.943932 -2.346599 -9.456581 -0.085217 155.208259 -35.703690 -147.404245 5.951755 -23.383615 -29.334640 -5.134138 0.136173 1.351538 9.095183 -15.889998 5.531076 179.194023 -40.601833 164.175154 -16.023755 -25.359007 32.558132 -4.957035 -41.778832 5.809179 130.827577 85.404492 134.723491 -4.179949 -10.032936 -3.270218 0.568167 -0.746989 0.218374 3.113099 -38.051120 6.027808 70.536301 83.377094 60.129149 -6.161476 -11.993319 10.278745 0.267049 1.270101 0.160903
